<svg width="32" height="32" viewBox="0 0 32 32" fill="none" xmlns="http://www.w3.org/2000/svg">
<path d="M16 21C18.7614 21 21 18.7614 21 16C21 13.2386 18.7614 11 16 11C13.2386 11 11 13.2386 11 16C11 18.7614 13.2386 21 16 21Z" stroke="url(#paint0_linear_601_84)" stroke-width="1.5" stroke-miterlimit="10"/>
<path d="M21.5 4.5H10.5C7.18629 4.5 4.5 7.18629 4.5 10.5V21.5C4.5 24.8137 7.18629 27.5 10.5 27.5H21.5C24.8137 27.5 27.5 24.8137 27.5 21.5V10.5C27.5 7.18629 24.8137 4.5 21.5 4.5Z" stroke="url(#paint1_linear_601_84)" stroke-width="1.5" stroke-linecap="round" stroke-linejoin="round"/>
<path d="M22.5 11C23.3284 11 24 10.3284 24 9.5C24 8.67157 23.3284 8 22.5 8C21.6716 8 21 8.67157 21 9.5C21 10.3284 21.6716 11 22.5 11Z" fill="url(#paint2_linear_601_84)"/>
<defs>
<linearGradient id="paint0_linear_601_84" x1="19.0651" y1="10.5" x2="12.8236" y2="16.2744" gradientUnits="userSpaceOnUse">
<stop stop-color="#78E3D1"/>
<stop offset="1" stop-color="#A6FB98"/>
</linearGradient>
<linearGradient id="paint1_linear_601_84" x1="23.0497" y1="3.35" x2="8.69429" y2="16.6311" gradientUnits="userSpaceOnUse">
<stop stop-color="#78E3D1"/>
<stop offset="1" stop-color="#A6FB98"/>
</linearGradient>
<linearGradient id="paint2_linear_601_84" x1="23.4195" y1="7.85" x2="21.5471" y2="9.58232" gradientUnits="userSpaceOnUse">
<stop stop-color="#78E3D1"/>
<stop offset="1" stop-color="#A6FB98"/>
</linearGradient>
</defs>
</svg>
