<svg width="32" height="32" viewBox="0 0 32 32" fill="none" xmlns="http://www.w3.org/2000/svg">
<path d="M5 22V9C5 8.46957 5.21071 7.96086 5.58579 7.58579C5.96086 7.21071 6.46957 7 7 7H25C25.5304 7 26.0391 7.21071 26.4142 7.58579C26.7893 7.96086 27 8.46957 27 9V22" stroke="url(#paint0_linear_601_89)" stroke-width="1.5" stroke-linecap="round" stroke-linejoin="round"/>
<path d="M3 22H29V24C29 24.5304 28.7893 25.0391 28.4142 25.4142C28.0391 25.7893 27.5304 26 27 26H5C4.46957 26 3.96086 25.7893 3.58579 25.4142C3.21071 25.0391 3 24.5304 3 24V22Z" stroke="url(#paint1_linear_601_89)" stroke-width="1.5" stroke-linecap="round" stroke-linejoin="round"/>
<path d="M18 11H14" stroke="url(#paint2_linear_601_89)" stroke-width="1.5" stroke-linecap="round" stroke-linejoin="round"/>
<defs>
<linearGradient id="paint0_linear_601_89" x1="22.7432" y1="6.25" x2="13.7737" y2="18.4209" gradientUnits="userSpaceOnUse">
<stop stop-color="#78E3D1"/>
<stop offset="1" stop-color="#A6FB98"/>
</linearGradient>
<linearGradient id="paint1_linear_601_89" x1="23.9693" y1="21.8" x2="23.1588" y2="26.6735" gradientUnits="userSpaceOnUse">
<stop stop-color="#78E3D1"/>
<stop offset="1" stop-color="#A6FB98"/>
</linearGradient>
<linearGradient id="paint2_linear_601_89" x1="17.226" y1="10.95" x2="16.9107" y2="12.1169" gradientUnits="userSpaceOnUse">
<stop stop-color="#78E3D1"/>
<stop offset="1" stop-color="#A6FB98"/>
</linearGradient>
</defs>
</svg>
